solid Exported from Blender-2.79 (sub 0)
facet normal -1.000000 0.000000 0.000000
outer loop
vertex -4.543840 26.881207 -4.543840
vertex -4.543840 26.881207 4.543840
vertex -4.543840 35.968887 4.543840
endloop
endfacet
facet normal -1.000000 0.000000 0.000000
outer loop
vertex -4.543840 35.968887 4.543840
vertex -4.543840 35.968887 -4.543840
vertex -4.543840 26.881207 -4.543840
endloop
endfacet
facet normal 0.000000 1.000000 0.000000
outer loop
vertex -4.543840 35.968887 -4.543840
vertex -4.543840 35.968887 4.543840
vertex 4.543840 35.968887 4.543840
endloop
endfacet
facet normal 0.000000 1.000000 0.000000
outer loop
vertex 4.543840 35.968887 4.543840
vertex 4.543840 35.968887 -4.543840
vertex -4.543840 35.968887 -4.543840
endloop
endfacet
facet normal 1.000000 0.000000 0.000000
outer loop
vertex 4.543840 35.968887 -4.543840
vertex 4.543840 35.968887 4.543840
vertex 4.543840 26.881207 4.543840
endloop
endfacet
facet normal 1.000000 0.000000 0.000000
outer loop
vertex 4.543840 26.881207 4.543840
vertex 4.543840 26.881207 -4.543840
vertex 4.543840 35.968887 -4.543840
endloop
endfacet
facet normal 0.000000 -1.000000 0.000000
outer loop
vertex -4.543840 26.881207 4.543840
vertex -4.543840 26.881207 -4.543840
vertex 4.543840 26.881207 -4.543840
endloop
endfacet
facet normal 0.000000 -1.000000 0.000000
outer loop
vertex 4.543840 26.881207 -4.543840
vertex 4.543840 26.881207 4.543840
vertex -4.543840 26.881207 4.543840
endloop
endfacet
facet normal 0.000000 0.000000 -1.000000
outer loop
vertex 4.543840 26.881207 -4.543840
vertex -4.543840 26.881207 -4.543840
vertex -4.543840 35.968887 -4.543840
endloop
endfacet
facet normal 0.000000 0.000000 -1.000000
outer loop
vertex -4.543840 35.968887 -4.543840
vertex 4.543840 35.968887 -4.543840
vertex 4.543840 26.881207 -4.543840
endloop
endfacet
facet normal 0.000000 0.000000 1.000000
outer loop
vertex 4.543840 35.968887 4.543840
vertex -4.543840 35.968887 4.543840
vertex -4.543840 26.881207 4.543840
endloop
endfacet
facet normal 0.000000 0.000000 1.000000
outer loop
vertex -4.543840 26.881207 4.543840
vertex 4.543840 26.881207 4.543840
vertex 4.543840 35.968887 4.543840
endloop
endfacet
endsolid Exported from Blender-2.79 (sub 0)
